<svg width="362" height="362" xmlns="http://www.w3.org/2000/svg" xmlns:xlink="http://www.w3.org/1999/xlink" xml:space="preserve" overflow="hidden"><defs><clipPath id="clip0"><rect x="459" y="172" width="362" height="362"/></clipPath></defs><g clip-path="url(#clip0)" transform="translate(-459 -172)"><path d="M0 0 0 26.9123 17.0081 26.9123 17.0081 24.3413 3.06099 24.3413 3.06099 14.9679 16.2524 14.9679 16.2524 12.3598 3.06099 12.3598 3.06099 2.57006 17.0081 2.57006 17.0081 0Z" fill="#283648" transform="matrix(1 0 0 -1 660.609 385.036)"/><path d="M0 0 0 24.2658-9.37391 24.2658-9.37391 26.9123 12.5109 26.9123 12.5109 24.2658 3.13746 24.2658 3.13746-3.21503e-15Z" fill="#283648" transform="matrix(1 0 0 -1 691.907 385.036)"/><path d="M0 0 0 24.2658-9.37391 24.2658-9.37391 26.9123 12.5109 26.9123 12.5109 24.2658 3.13746 24.2658 3.13746-3.21503e-15Z" fill="#283648" transform="matrix(1 0 0 -1 710.92 385.036)"/><path d="M0 0 0 26.9123 17.0081 26.9123 17.0081 24.3413 3.06144 24.3413 3.06144 14.9679 16.2524 14.9679 16.2524 12.3598 3.06144 12.3598 3.06144 2.57006 17.0081 2.57006 17.0081 0Z" fill="#283648" transform="matrix(1 0 0 -1 727.209 385.036)"/><path d="M0 0 7.37081 0C9.46215 0 11.0182 0.428041 12.0385 1.28503 13.0589 2.14111 13.5697 3.4017 13.5697 5.06455 13.5697 6.72784 13.0652 7.96853 12.0575 8.78751 11.0499 9.60603 9.48703 10.016 7.37081 10.016L1.60751e-15 10.016ZM-3.06144-14.3253-3.06144 12.5865 7.63506 12.5865C10.5327 12.5865 12.7571 11.9435 14.3063 10.6589 15.8565 9.37346 16.6307 7.52148 16.6307 5.10256 16.6307 2.78408 15.8434 0.963318 14.2688-0.359265 12.6937-1.6823 10.4825-2.34337 7.63506-2.34337L10.4318-1.81442C11.415-1.81442 12.2589-2.08546 12.9648-2.62707 13.6702-3.16913 14.2367-4.032 14.6656-5.21613L18.0669-14.3253 14.7787-14.3253 11.453-5.36725C11.0241-4.23335 10.4386-3.48405 9.69517-3.11845 8.95176-2.75331 7.96265-2.57051 6.72784-2.57051L0-2.57051 0-14.3253Z" fill="#283648" transform="matrix(1 0 0 -1 752.498 370.711)"/><path d="M0 0 7.36991 0C9.36079 0 10.8603 0.434828 11.868 1.30403 12.8761 2.17324 13.3801 3.4017 13.3801 4.98944 13.3801 6.57672 12.8761 7.79885 11.868 8.65584 10.8603 9.51192 9.36079 9.94087 7.36991 9.94087L-1.60751e-15 9.94087ZM-3.09945-14.4009-3.09945 12.5114 7.63506 12.5114C10.4065 12.5114 12.5675 11.8431 14.1168 10.5078 15.6669 9.17211 16.442 7.3328 16.442 4.98944 16.442 2.6705 15.6601 0.831648 14.0987-0.528943 12.5354-1.88999 10.3811-2.57006 7.63506-2.57006L0-2.57006 0-14.4009Z" fill="#283648" transform="matrix(1 0 0 -1 520.871 346.182)"/><path d="M0 0 0 26.9123 3.09945 26.9123 3.09945 2.64562 16.5927 2.64562 16.5927 4.01878e-16Z" fill="#283648" transform="matrix(1 0 0 -1 540.871 360.58)"/><path d="M0 0 1.09635 2.57006 15.233 2.57006 16.3289 0ZM-1.81442-6.91698-5.02699-6.91698 6.80386 19.9948 9.52549 19.9948 21.3559-6.91698 18.1809-6.91698 7.63551 17.727 8.76941 17.727Z" fill="#283648" transform="matrix(1 0 0 -1 567.046 353.666)"/><path d="M0 0 0 26.9123 2.38092 26.9123 19.5415 4.04422 18.6343 3.81753 18.6343 26.9123 21.5821 26.9123 21.5821 0 19.1632 0 2.04066 22.8296 2.90986 23.0948 2.90986 0Z" fill="#283648" transform="matrix(1 0 0 -1 591.656 360.58)"/><path d="M0 0C-0.995444-0.781424-2.5515-1.17146-4.66773-1.17146L-12.5299-1.17146-12.5299 8.61828-4.66773 8.61828C-2.57639 8.61828-1.02712 8.20201-0.0190039 7.37081 0.988657 6.53916 1.49271 5.30436 1.49271 3.66685 1.49271 2.00356 0.995444 0.780971 2.00939e-16 0M3.11845 7.97532C2.25378 9.02098 1.07553 9.7101-0.384151 10.0789 0.875086 10.5431 1.89451 11.2368 2.64607 12.1897 3.48948 13.2607 3.91209 14.5769 3.91209 16.1398 3.91209 18.3822 3.14289 20.1148 1.60674 21.3369 0.398178 22.297-1.18141 22.8744-3.12072 23.0803L-3.12072 20.427C-2.1022 20.2451-1.28096 19.9193-0.661065 19.4469 0.346143 18.6777 0.850652 17.5252 0.850652 15.9882 0.850652 14.4258 0.339808 13.2417-0.680069 12.4358-1.70085 11.6286-3.23157 11.2263-5.27269 11.2263L-15.5914 11.2888-15.5914-3.74196-4.40348-3.74196C-1.55606-3.74196 0.648848-3.11212 2.21124-1.85198 3.77319-0.592289 4.55461 1.22213 4.55461 3.59129 4.55461 5.35458 4.07589 6.81608 3.11845 7.97532" fill="#283648" transform="matrix(1 0 0 -1 650.46 381.294)"/><path d="M0 0-14.0086 0.097282 0.0126693 19.9089ZM3.04199-2.6515 8.94542-2.6515 8.94542-0.0809929 8.79158-0.0809929 8.79158-0.0610841 2.40716-0.0167416 2.42255 23.6956 0.236192 24.3915-17.3067-0.39501-16.3321-2.29405-0.0190039-2.40716-0.0190039-8.45675 3.04199-8.45675Z" fill="#2BB481" transform="matrix(1 0 0 -1 634.89 358.042)"/></g></svg>