<svg width="281" height="218" xmlns="http://www.w3.org/2000/svg" xmlns:xlink="http://www.w3.org/1999/xlink" xml:space="preserve" overflow="hidden"><defs><clipPath id="clip0"><rect x="700" y="96" width="281" height="218"/></clipPath></defs><g clip-path="url(#clip0)" transform="translate(-700 -96)"><path d="M94.2689 13.2013 94.2689 71.6644 109.356 71.6644 109.356 13.2013 179.135 13.2013 179.135 84.8658 165.933 84.8658 165.933 26.4027 150.846 26.4027 150.846 84.8658 137.645 84.8658 137.645 26.4027 122.557 26.4027 122.557 84.8658 81.0676 84.8658 81.0676 26.4027 67.8662 26.4027 67.8662 84.8658 54.6649 84.8658 54.6649 26.4027 41.4635 26.4027 41.4635 13.2013 94.2689 13.2013Z" fill="#3070B3" transform="matrix(1 0 0 1.01399 730.201 155.281)"/></g></svg>